# xmcd
#
# Track frame offsets: 
#        150
#        16630
#        31235
#        46575
#        61150
#        76910
#        90280
#        104403
#        121265
#        140250
#        156638
#
# Disc length: 2285 seconds
#
# Revision: 1
# Processed by: cddbd v1.5.2PL0 Copyright (c) Steve Scherf et al.
# Submitted via: ExactAudioCopyFreeDBPlugin 1.0
#
DISCID=7608eb0b
DTITLE=ΒΙΚΤΩΡΙΑ ΧΑΛΚΙΤΗ - ΒΙΚΤΩΡΙΑ ΧΑΛΚΙΤΗ ΙΙ
DYEAR=1996
DGENRE=ÅËË ÐÏÐ
TTITLE0=ΚΡΥΦΗ ΑΜΑΡΤΙΑ
TTITLE1=ΧΟΡΕΨΕ ΘΑΛΑΣΣΑ
TTITLE2=ΣΟΥ ΑΦΙΕΡΩΝΩ
TTITLE3=ΤΩΡΑ , ΤΩΡΑ
TTITLE4=ΜΑΤΙΑ ΔΑΚΡΥΣΜΕΝΑ
TTITLE5=ΠΑΝΤΑ ΝΑ ΓΕΛΑΣ
TTITLE6=ΣΕ ΘΕΛΩ ΓΙΑ ΜΕΝΑ
TTITLE7=ΓΙΑ ΕΝΑ ΟΝΕΙΡΟ ΖΩ
TTITLE8=ΣΤΟ ΑΙΓΑΙΟ
TTITLE9=ΦΙΛΙΑ ΣΤΟ ΧΡΩΜΑ ΤΗΣ ΦΩΤΙΑΣ
TTITLE10=ANOTHER STAR
EXTD=
EXTT0=
EXTT1=
EXTT2=
EXTT3=
EXTT4=
EXTT5=
EXTT6=
EXTT7=
EXTT8=
EXTT9=
EXTT10=
PLAYORDER=
